HIERARCHY
ROOT Hips
{
    OFFSET 0.000000 0.000000 0.000000
    CHANNELS 6 Xposition Yposition Zposition Zrotation Yrotation Xrotation
    JOINT LeftUpLeg
    {
        OFFSET 9.287805 -9.645094 4.773243
        CHANNELS 3 Zrotation Yrotation Xrotation
        JOINT LeftLeg
        {
            OFFSET 12.697812 -34.887020 0.000000
            CHANNELS 3 Zrotation Yrotation Xrotation
            JOINT LeftFoot
            {
                OFFSET 15.340069 -42.146564 0.000000
                CHANNELS 3 Zrotation Yrotation Xrotation
                JOINT LeftToeBase
                {
                    OFFSET 1.059341 -2.910479 12.685056
                    CHANNELS 3 Zrotation Yrotation Xrotation
                    End Site
                    {
                        OFFSET 0.000000 0.000000 0.000000
                    }
                }
            }
        }
    }
    JOINT RightUpLeg
    {
        OFFSET -8.965001 -9.645094 4.773243
        CHANNELS 3 Zrotation Yrotation Xrotation
        JOINT RightLeg
        {
            OFFSET -12.700239 -34.893738 0.000000
            CHANNELS 3 Zrotation Yrotation Xrotation
            JOINT RightFoot
            {
                OFFSET -15.399561 -42.310028 0.000000
                CHANNELS 3 Zrotation Yrotation Xrotation
                JOINT RightToeBase
                {
                    OFFSET -1.215860 -3.340638 11.889534
                    CHANNELS 3 Zrotation Yrotation Xrotation
                    End Site
                    {
                        OFFSET 0.000000 0.000000 0.000000
                    }
                }
            }
        }
    }
    JOINT Spine
    {
        OFFSET 0.177347 11.881236 -0.623029
        CHANNELS 3 Zrotation Yrotation Xrotation
        JOINT Spine1
        {
            OFFSET -0.105155 11.903871 -0.392624
            CHANNELS 3 Zrotation Yrotation Xrotation
            JOINT Neck1
            {
                OFFSET -0.127959 9.778246 0.025456
                CHANNELS 3 Zrotation Yrotation Xrotation
                JOINT Head
                {
                    OFFSET -0.327827 8.733242 -3.485361
                    CHANNELS 3 Zrotation Yrotation Xrotation
                    End Site
                    {
                        OFFSET 0.000000 0.000000 0.000000
                    }
                }
            }
            JOINT LeftShoulder
            {
                OFFSET 0.000000 0.000000 0.000000
                CHANNELS 3 Zrotation Yrotation Xrotation
                JOINT LeftArm
                {
                    OFFSET 19.467424 2.839020 1.237252
                    CHANNELS 3 Zrotation Yrotation Xrotation
                    JOINT LeftForeArm
                    {
                        OFFSET 30.587963 -0.000000 -0.000000
                        CHANNELS 3 Zrotation Yrotation Xrotation
                        JOINT LeftHand
                        {
                            OFFSET 13.793390 -0.000000 0.000000
                            CHANNELS 3 Zrotation Yrotation Xrotation
                            End Site
                            {
                                OFFSET 0.000000 0.000000 0.000000
                            }
                        }
                    }
                }
            }
            JOINT RightShoulder
            {
                OFFSET 0.000000 0.000000 0.000000
                CHANNELS 3 Zrotation Yrotation Xrotation
                JOINT RightArm
                {
                    OFFSET -18.232260 3.151269 1.752643
                    CHANNELS 3 Zrotation Yrotation Xrotation
                    JOINT RightForeArm
                    {
                        OFFSET -31.550840 -0.000564 0.000790
                        CHANNELS 3 Zrotation Yrotation Xrotation
                        JOINT RightHand
                        {
                            OFFSET -14.001499 -0.000000 0.000000
                            CHANNELS 3 Zrotation Yrotation Xrotation
                            End Site
                            {
                                OFFSET 0.000000 0.000000 0.000000
                            }
                        }
                    }
                }
            }
        }
    }
}
MOTION
Frames: 10
Frame Time: 0.016667
27.414288 86.872963 -98.871269 -4.817800 -0.821600 30.717300 -35.747513 10.025709 -46.366417 8.496499 16.472500 54.331902 -3.196099 45.834316 21.276405 0.090500 1.940100 5.340202 30.638210 13.428308 -55.860905 -3.387402 -11.297302 33.289108 -0.010699 -13.535102 -19.362915 -0.048900 -1.427701 3.926500 15.289312 -0.639970 1.963988 12.530404 1.745900 -17.115200 -4.112761 5.426990 -11.831429 -1.716600 1.707101 2.743601 0.000000 0.000000 0.000000 -136.930298 -66.417542 63.151112 7.355103 -12.502206 -0.806800 0.000000 0.000000 50.689400 0.000000 0.000000 0.000000 77.518799 68.588104 -129.597397 -4.674602 8.034602 -0.328500 0.000000 0.000000 149.746994 
27.163675 86.654526 -98.818199 -4.424002 -1.333400 30.257513 -36.086002 9.681600 -46.340607 8.730193 16.630896 55.152298 -2.957400 46.346825 22.775612 0.079100 1.814800 4.993997 29.248106 14.993109 -55.351730 -3.573601 -11.570200 34.228001 -0.036199 -14.599300 -21.122299 -0.128300 -2.309101 6.360600 13.731797 -0.715934 2.450040 12.935100 1.717500 -16.415199 -3.642055 5.485276 -12.141727 -1.644000 1.715900 3.093398 0.000000 0.000000 0.000000 -141.710983 -62.614529 73.451630 7.539398 -12.803404 -0.847100 0.000000 0.000000 44.962700 0.000000 0.000000 0.000000 90.634811 68.001320 -124.067215 -5.509604 9.441804 -0.455300 0.000000 0.000000 146.959000 
26.961040 86.393753 -98.790543 -4.585001 -1.553600 30.004807 -35.915905 9.227505 -46.936493 9.182900 16.924004 56.720501 -6.756704 46.351200 6.029499 1.330200 7.303600 20.617912 29.137098 15.790308 -55.153599 -3.722102 -11.781103 34.962093 -0.092700 -14.859707 -22.055798 -0.151700 -2.509502 6.916006 13.094180 -1.109423 2.192762 13.086394 1.586600 -16.200399 -3.004972 5.668177 -10.589459 -1.650301 1.734000 2.705102 0.000000 0.000000 0.000000 -141.068100 -59.147137 89.623199 8.448899 -14.277900 -1.060100 0.000000 0.000000 29.585396 0.000000 0.000000 0.000000 103.260330 63.378639 -103.971565 -4.205900 7.239399 -0.266200 0.000000 0.000000 128.628998 
26.715509 86.073708 -98.594124 -4.568303 -2.101201 29.368811 -36.196098 9.415106 -47.417191 9.716400 17.247198 58.536110 -7.058106 45.910404 3.400599 1.734400 8.289400 23.596508 29.055792 16.364004 -54.560997 -3.887305 -12.008906 35.763512 0.005201 -15.693708 -22.217112 -0.053800 -1.497000 4.117402 11.986629 -1.024458 2.323984 13.290605 1.608101 -15.930909 -2.375780 5.673951 -9.148605 -1.445100 1.705702 2.563600 0.000000 0.000000 0.000000 -145.924820 -53.543606 78.604126 7.611300 -12.920900 -0.863100 0.000000 0.000000 45.233799 0.000000 0.000000 0.000000 111.279907 57.105999 -74.817986 -2.568600 4.438600 -0.099600 0.000000 0.000000 95.593903 
26.437805 85.744080 -98.582832 -4.718602 -2.258501 28.573200 -36.228199 9.488400 -47.998600 10.394704 17.625912 60.799606 -7.167002 43.999622 -2.442301 2.454301 9.754402 28.185007 29.289816 16.693209 -54.316128 -4.151503 -12.359304 37.015110 -0.023200 -16.046001 -22.987801 -0.038600 -1.268300 3.487400 11.282792 -1.350814 2.656842 13.757700 1.531299 -15.489300 -2.013956 6.153284 -7.661844 -1.206401 1.820200 2.279400 0.000000 0.000000 0.000000 -144.153000 -51.319317 98.418434 9.231603 -15.528700 -1.261400 0.000000 0.000000 23.549400 0.000000 0.000000 0.000000 118.312714 54.539429 -46.183525 -3.003001 5.184703 -0.136000 0.000000 0.000000 61.737213 
26.165747 85.337685 -98.399963 -4.725800 -2.458900 27.907101 -36.646900 9.801000 -48.691917 11.020802 17.945303 62.849201 -5.518204 38.926300 -4.467602 1.610802 8.003401 22.724411 29.467096 16.654594 -54.520905 -4.531100 -12.835400 38.755402 -0.186800 -15.520295 -23.816505 -0.074200 -1.756800 4.833902 10.519130 -1.325324 2.585459 13.851204 1.433401 -14.566907 -1.466657 6.225280 -6.743480 -0.915501 1.822803 2.406102 0.000000 0.000000 0.000000 -145.767197 -47.885902 99.890701 9.316696 -15.663801 -1.284301 0.000000 0.000000 21.963900 0.000000 0.000000 0.000000 123.775803 51.062000 -19.414604 -3.004001 5.186500 -0.136100 0.000000 0.000000 27.084000 
26.065275 85.120941 -97.825912 -4.639601 -1.814901 26.696100 -36.810520 10.329401 -47.903011 11.462703 18.154202 64.275406 -4.023304 33.420006 -6.837904 1.086200 6.623800 18.605501 30.443199 14.525900 -54.423302 -4.943997 -13.320400 40.580200 -0.457601 -14.271999 -24.691692 -0.082800 -1.856600 5.109603 10.695388 -2.012127 2.572448 13.197206 1.031901 -13.523207 -0.915513 6.121293 -5.729654 -0.346200 1.770101 2.593001 0.000000 0.000000 0.000000 -147.321121 -44.994808 98.261787 9.048600 -15.237801 -1.212901 0.000000 0.000000 23.122803 0.000000 0.000000 0.000000 127.182411 44.945995 5.105301 -5.097803 8.749308 -0.390200 0.000000 0.000000 -6.989498 
25.863205 84.731476 -97.505318 -4.846901 -1.592900 25.449812 -36.731998 10.724200 -47.945705 12.001107 18.391104 65.992218 -3.194801 29.984800 -7.723301 0.351500 3.809303 10.540804 31.167601 13.729800 -54.167702 -5.326802 -13.742607 42.216000 -0.390699 -14.976715 -24.937614 -0.010100 -0.649700 1.785501 10.658218 -2.435888 2.751436 13.070704 0.872700 -13.290104 -0.810091 6.316070 -3.449670 -0.129200 1.814701 2.146200 0.000000 0.000000 0.000000 -145.799606 -43.815205 110.386200 10.734300 -17.879900 -1.693500 0.000000 0.000000 9.252900 0.000000 0.000000 0.000000 127.901794 37.288502 28.040918 -8.801608 14.843707 -1.148801 0.000000 0.000000 -37.625999 
25.595661 84.128654 -97.308899 -4.951203 -1.454100 24.237408 -36.789902 10.998901 -48.201103 12.574608 18.623203 67.799149 -2.233100 25.333208 -9.104202 0.016600 -0.831600 -2.285599 31.504805 13.544204 -53.712612 -5.740001 -14.171600 43.929195 -0.846499 -14.230000 -27.712900 -0.143900 -2.445000 6.737200 10.464891 -2.416864 2.838587 11.716800 0.525700 -11.348302 0.108469 4.980753 -3.202415 -0.944400 1.443600 2.531700 0.000000 0.000000 0.000000 -145.403198 -43.091400 114.420601 12.030405 -19.850201 -2.112600 0.000000 0.000000 8.907102 0.000000 0.000000 0.000000 130.180710 34.236797 38.578625 -10.857500 18.069401 -1.731500 0.000000 0.000000 -47.725399 
25.403187 83.565346 -96.959503 -5.195301 -0.844200 22.737305 -36.596809 11.612407 -47.938618 13.038498 18.796000 69.245003 -1.747999 22.784800 -11.763096 0.300900 -3.526801 -9.749106 32.091496 12.814999 -53.062798 -6.221699 -14.639798 45.865002 -0.833999 -14.671106 -28.067804 -0.079000 -1.813400 4.990298 10.778500 -2.522468 3.540041 11.703403 0.440500 -10.591400 -0.407806 4.550860 -2.528187 -0.771800 1.319101 2.332303 0.000000 0.000000 0.000000 -144.932098 -43.139004 120.055206 14.538500 -23.499201 -3.039498 0.000000 0.000000 8.357000 0.000000 0.000000 0.000000 130.868500 32.930496 47.674515 -11.643804 19.268316 -1.983201 0.000000 0.000000 -49.770901 
